# xmcd
#
# Track frame offsets: 
#        150
#        13947
#        28050
#        41555
#        51927
#        64205
#        75837
#        89357
#        103685
#        118382
#        131580
#        143310
#        158192
#        170959
#        183585
#        196407
#        207365
#        218930
#        231577
#        243135
#        256582
#
# Disc length: 3574 seconds
#
# Revision: 0
# Processed by: cddbd v1.5.2PL0 Copyright (c) Steve Scherf et al.
# Submitted via: ExactAudioCopyFreeDBPlugin 1.0
#
DISCID=2f0df415
DTITLE=James Earle Hines - Jesus Steps Right In
DYEAR=2002
DGENRE=Gospel
TTITLE0=I'm So Glad Jesus Lifted Me
TTITLE1=He's A Friend Of Mine
TTITLE2=Jesus Is Mine
TTITLE3=Get Back Jordan
TTITLE4=He Knows My Heart
TTITLE5=Yes, God Is Real
TTITLE6=Look For Me In Heaven
TTITLE7=Yield Not To Temptation
TTITLE8=(If We Never Needed The Lord Before) We Sure Do Need Him Now
TTITLE9=Makes Me Feel Like Flying Away To Be At Rest
TTITLE10=I'll Never Turn Back
TTITLE11=Remember Me
TTITLE12=I Cannot Make This Journey By Myself
TTITLE13=Only A Look
TTITLE14=Every Day Will Be Sunday
TTITLE15=Dig A Little Deeper
TTITLE16=Jesus Steps Right In
TTITLE17=Wait 'Til My Change Come
TTITLE18=Come Ye Disconsolate
TTITLE19=I Found Something
TTITLE20=The Lord Is On My Side
EXTD=
EXTT0=
EXTT1=
EXTT2=
EXTT3=
EXTT4=
EXTT5=
EXTT6=
EXTT7=
EXTT8=
EXTT9=
EXTT10=
EXTT11=
EXTT12=
EXTT13=
EXTT14=
EXTT15=
EXTT16=
EXTT17=
EXTT18=
EXTT19=
EXTT20=
PLAYORDER=
